<svg width="411" height="302" viewBox="0 0 411 302" fill="none" xmlns="http://www.w3.org/2000/svg">
<path fill-rule="evenodd" clip-rule="evenodd" d="M229.662 11.2092C209.724 11.2092 196.853 16.7714 190.039 19.0469C171.868 24.8621 159.501 33.4585 151.425 40.7906H235.719L251.871 63.0399L247.581 91.8627H219.062L222.595 68.6022H156.473L145.873 140.407H167.577L171.363 114.871H162.53L166.063 91.61H204.424L197.358 140.154H211.743L215.529 114.618H244.3L239.505 146.475L216.791 167.965H193.067L190.039 188.445H246.571L260.956 90.8515H299.318L295.784 114.365H286.951L275.09 195.271L253.133 216.509H221.081C214.519 219.796 208.462 225.358 205.181 235.725C201.143 249.125 201.144 272.132 201.144 272.132C201.144 272.132 215.781 269.857 218.053 269.351C220.072 268.846 225.876 269.351 229.662 268.846C233.448 268.34 239 266.823 242.533 264.8C246.066 262.525 250.104 257.974 251.871 255.951C253.638 253.676 261.714 247.861 263.228 246.849C264.742 245.838 270.042 243.815 271.809 242.551C273.575 241.287 283.418 233.955 286.699 230.415C289.98 226.876 296.037 219.543 297.803 216.762C300.832 212.211 304.113 216.004 304.365 217.521C305.627 221.566 310.927 227.128 312.946 229.151C314.965 231.426 316.479 230.921 316.479 230.921C316.479 230.921 327.331 224.853 329.603 223.336C331.874 221.566 336.922 221.06 338.436 221.06C339.95 221.06 341.717 219.796 342.474 219.038C343.231 218.279 378.311 186.422 390.93 167.713C394.968 161.645 397.744 156.841 399.006 149.256C401.278 135.856 401.025 133.833 399.511 120.686C397.744 104.504 381.087 84.2778 378.816 82.2551C376.545 80.2325 367.712 71.6362 348.026 65.5682C338.688 62.5342 325.565 62.5341 323.798 62.787C322.032 63.0398 317.993 60.7644 316.984 60.0059C315.974 58.9945 312.694 54.6964 311.179 51.9152C304.365 40.5377 290.737 30.6772 287.961 28.6546C285.437 26.6319 275.342 18.0356 252.376 13.4846C243.543 11.9676 236.224 11.2092 229.662 11.2092ZM125.431 75.4286C115.84 76.9456 82.7792 84.7835 70.1604 102.229C69.4032 103.24 66.6271 103.746 65.1128 103.746C63.851 103.746 45.1751 103.746 44.418 103.746C43.6609 103.746 41.3895 104.757 44.418 107.538C47.1941 110.067 53.756 114.112 59.3082 116.135C61.3272 116.893 61.0748 120.18 59.8129 121.95C56.2797 128.018 54.513 151.026 57.2892 159.116C57.7939 160.128 57.0368 163.92 55.5226 164.426C53.2512 165.184 48.456 167.46 46.437 168.724C44.418 169.988 39.3705 174.539 35.8372 180.354C34.0706 183.641 33.0611 185.411 32.8088 192.996C32.5564 197.547 32.304 202.604 30.0326 206.396C27.7612 210.189 20.19 220.808 18.9281 222.83C17.6662 224.853 16.1519 231.174 15.3948 232.943C14.89 234.966 12.6186 239.77 11.6091 241.54C9.84249 244.321 11.1044 250.895 12.1139 254.181C14.6377 264.295 30.7897 287.555 31.2945 288.819C32.8087 291.601 33.8183 290.336 36.5944 288.567C42.9038 284.774 45.1751 278.453 46.9417 276.684C48.7084 275.167 55.0178 270.868 56.2797 269.351C61.0748 263.536 63.5986 253.929 63.851 250.136C64.1033 246.344 66.1223 228.392 65.8699 226.117C65.6176 223.841 67.3843 215.245 69.4033 212.97C71.1699 210.694 74.9555 208.166 76.9745 208.419C82.0221 208.924 90.3504 212.211 93.1266 213.728C98.6789 217.015 108.521 220.555 121.897 220.555C138.049 220.555 148.397 218.532 152.687 217.268C157.735 215.751 163.792 213.728 165.558 212.717C166.063 212.464 168.335 211.705 170.354 210.441L158.997 195.524L163.035 168.218H132.75L114.579 146.475L125.431 75.4286Z" fill="url(#paint0_linear_27_16)"/>
<path d="M338.436 151.025C335.407 155.829 331.117 155.829 331.117 155.829C321.527 156.335 321.022 146.727 321.022 146.727C321.527 125.995 344.998 113.1 353.326 108.802C353.326 108.802 356.354 107.032 354.84 109.814C347.017 123.467 343.483 133.58 342.474 138.384C342.221 138.131 340.455 147.991 338.436 151.025Z" fill="white"/>
<path d="M338.436 151.025C335.407 155.829 331.117 155.829 331.117 155.829C321.527 156.335 321.022 146.727 321.022 146.727C321.527 125.995 344.998 113.1 353.326 108.802C353.326 108.802 356.354 107.032 354.84 109.814C347.017 123.467 343.483 133.58 342.474 138.384C342.221 138.131 340.455 147.991 338.436 151.025Z" fill="white"/>
<defs>
<linearGradient id="paint0_linear_27_16" x1="205.703" y1="290.445" x2="205.703" y2="11.2092" gradientUnits="userSpaceOnUse">
<stop stop-color="#96705B"/>
<stop offset="1" stop-color="#F6D8AE"/>
</linearGradient>
</defs>
</svg>
