<svg width="93" height="62" viewBox="0 0 93 62" fill="none" xmlns="http://www.w3.org/2000/svg">
<path fill-rule="evenodd" clip-rule="evenodd" d="M51.9673 2.42934C47.4559 2.42934 44.5434 3.63482 43.0015 4.12798C38.8898 5.38827 36.0916 7.25132 34.2641 8.84038H53.3378L56.9927 13.6623L56.0219 19.909H49.5688L50.3683 14.8678H35.4063L33.0078 30.4296H37.919L38.7756 24.8953H36.7768L37.5763 19.8542H46.2566L44.6576 30.3749H47.9127L48.7693 24.8405H55.2795L54.1945 31.7447L49.0548 36.4023H43.6868L43.0015 40.8407H55.7935L59.0485 19.6898H67.7288L66.9293 24.7857H64.9306L62.2466 42.3202L57.2782 46.923H50.0257C48.5409 47.6353 47.1703 48.8408 46.4279 51.0874C45.5142 53.9915 45.5142 58.9779 45.5142 58.9779C45.5142 58.9779 48.8264 58.4847 49.3404 58.3751C49.7972 58.2656 51.1107 58.3752 51.9673 58.2656C52.8239 58.156 54.0802 57.8272 54.8797 57.3888C55.6792 56.8957 56.593 55.9094 56.9927 55.471C57.3925 54.9779 59.2199 53.7176 59.5625 53.4984C59.9052 53.2792 61.1044 52.8409 61.5042 52.5669C61.9039 52.2929 64.1311 50.7039 64.8735 49.9367C65.6158 49.1696 66.9864 47.5805 67.3862 46.9778C68.0715 45.9915 68.8138 46.8134 68.8709 47.1421C69.1565 48.0189 70.3557 49.2244 70.8126 49.6627C71.2695 50.1559 71.6121 50.0463 71.6121 50.0463C71.6121 50.0463 74.0677 48.7312 74.5816 48.4024C75.0956 48.0189 76.2377 47.9093 76.5804 47.9093C76.923 47.9093 77.3228 47.6353 77.4941 47.4709C77.6654 47.3066 85.6033 40.4023 88.4586 36.3475C89.3723 35.0324 90.0005 33.9913 90.2861 32.3475C90.8 29.4433 90.7429 29.005 90.4003 26.1556C90.0005 22.6487 86.2315 18.2651 85.7175 17.8268C85.2035 17.3884 83.2048 15.5254 78.7504 14.2103C76.6375 13.5528 73.6679 13.5527 73.2682 13.6075C72.8684 13.6623 71.9547 13.1692 71.7263 13.0048C71.4979 12.7856 70.7555 11.8541 70.4128 11.2513C68.871 8.78556 65.7872 6.64855 65.159 6.21019C64.5879 5.77183 62.3037 3.90879 57.1069 2.92248C55.1082 2.59371 53.4521 2.42934 51.9673 2.42934ZM28.3821 16.3473C26.2121 16.6761 18.731 18.3747 15.8757 22.1556C15.7044 22.3748 15.0762 22.4843 14.7336 22.4843C14.448 22.4843 10.2221 22.4843 10.0508 22.4843C9.87946 22.4843 9.3655 22.7035 10.0508 23.3063C10.679 23.8542 12.1638 24.731 13.4201 25.1693C13.877 25.3337 13.8198 26.046 13.5343 26.4296C12.7348 27.7447 12.3351 32.731 12.9632 34.4845C13.0775 34.7037 12.9061 35.5256 12.5635 35.6352C12.0495 35.7996 10.9645 36.2927 10.5076 36.5667C10.0508 36.8407 8.90865 37.827 8.10915 39.0873C7.7094 39.7996 7.48098 40.1832 7.42388 41.827C7.36677 42.8133 7.30966 43.9093 6.7957 44.7312C6.28173 45.5531 4.56853 47.8545 4.28299 48.2929C3.99746 48.7312 3.6548 50.1011 3.48348 50.4847C3.36927 50.923 2.85531 51.9641 2.62688 52.3477C2.22713 52.9504 2.51267 54.3751 2.7411 55.0874C3.31217 57.2792 6.96702 62.3204 7.08123 62.5944C7.42387 63.1971 7.6523 62.9231 8.28048 62.5396C9.70815 61.7177 10.2221 60.3478 10.6219 59.9642C11.0216 59.6354 12.4493 58.7039 12.7348 58.3751C13.8198 57.1149 14.3909 55.0327 14.448 54.2107C14.5051 53.3888 14.962 49.4984 14.9049 49.0052C14.8478 48.512 15.2475 46.649 15.7044 46.1558C16.1041 45.6627 16.9607 45.1147 17.4176 45.1695C18.5597 45.2791 20.4443 45.9915 21.0724 46.3202C22.3288 47.0326 24.556 47.7997 27.5826 47.7997C31.2375 47.7997 33.5789 47.3613 34.5497 47.0874C35.6918 46.7586 37.0624 46.3202 37.4621 46.1011C37.5763 46.0463 38.0903 45.8819 38.5472 45.6079L35.9774 42.375L36.891 36.4571H30.0382L25.9265 31.7447L28.3821 16.3473Z" fill="url(#paint0_linear_27_16)"/>
<path d="M76.5804 32.731C75.8951 33.7721 74.9243 33.7721 74.9243 33.7721C72.7542 33.8817 72.64 31.7995 72.64 31.7995C72.7542 27.3063 78.0652 24.5117 79.9497 23.5802C79.9497 23.5802 80.635 23.1967 80.2923 23.7994C78.522 26.7583 77.7225 28.9501 77.4941 29.9913C77.437 29.9365 77.0372 32.0735 76.5804 32.731Z" fill="white"/>
<path d="M76.5804 32.731C75.8951 33.7721 74.9243 33.7721 74.9243 33.7721C72.7542 33.8817 72.64 31.7995 72.64 31.7995C72.7542 27.3063 78.0652 24.5117 79.9497 23.5802C79.9497 23.5802 80.635 23.1967 80.2923 23.7994C78.522 26.7583 77.7225 28.9501 77.4941 29.9913C77.437 29.9365 77.0372 32.0735 76.5804 32.731Z" fill="white"/>
<defs>
<linearGradient id="paint0_linear_27_16" x1="46.5458" y1="62.9467" x2="46.5458" y2="2.42934" gradientUnits="userSpaceOnUse">
<stop stop-color="#96705B"/>
<stop offset="1" stop-color="#F6D8AE"/>
</linearGradient>
</defs>
</svg>
