<svg width="50" height="50" viewBox="0 0 50 50" fill="none" xmlns="http://www.w3.org/2000/svg">
<path d="M24.9346 0V0.00270834C16.1741 0.023125 8.04206 4.62917 3.53456 12.1746C-1.08461 19.9069 -1.18274 29.5255 3.27789 37.3501C7.50456 44.764 15.2048 49.4772 23.666 49.9261C24.6124 50.028 25.5671 50.0245 26.5127 49.9157C34.7246 49.4172 42.2054 44.9019 46.4544 37.7892C48.7029 34.0252 49.9201 29.7351 49.9833 25.3511C49.993 25.264 49.9985 25.1766 50 25.089V25.0177C49.9989 24.9409 49.9947 24.8642 49.9875 24.7877C49.9568 20.7447 48.9442 16.7697 47.0369 13.2048C42.7892 5.26272 34.5933 0.220209 25.5858 0.00687501C25.4192 0.00291667 25.2529 0.00416667 25.0867 0.00354167C25.0396 0.003125 24.9787 0 24.9346 0ZM24.9512 1.74896C27.5125 1.75146 29.2548 2.32042 29.2548 2.81896C29.2548 3.31855 27.4694 3.96126 24.97 3.96126C22.4706 3.96126 20.6142 3.3548 20.6142 2.855C20.6142 2.36625 22.3287 1.77834 24.7775 1.75292C24.8356 1.7525 24.8931 1.74938 24.9512 1.74896ZM30.9389 2.51563C34.8632 3.54611 38.451 5.58205 41.3481 8.42251C37.2485 6.85189 31.2864 5.98459 25.5056 5.92418C22.6998 5.92418 19.8744 6.11126 17.2206 6.46313C16.6435 5.75626 15.6435 5.39438 14.6229 5.89293C14.0604 6.16793 13.7135 6.60084 13.5441 7.08126C11.7477 7.45668 10.1008 7.91918 8.67914 8.46293C11.5298 5.65059 15.0571 3.6203 18.9208 2.56792C18.9085 2.66063 18.9 2.75542 18.9 2.85521C18.9 5.4248 23.1133 5.63855 24.9702 5.63855C26.8269 5.63855 30.9689 5.38897 30.9689 2.85521C30.9689 2.73667 30.9564 2.62459 30.9389 2.51563ZM25.5056 7.60126C35.4827 7.72605 42.8177 10.0006 44.5179 12.2863C44.569 12.3642 44.6212 12.4411 44.6712 12.5196C44.8171 12.7736 44.8944 13.0267 44.8944 13.2759C44.8944 14.9954 41.2875 16.8284 35.6304 17.9225C32.4352 17.4586 28.9977 17.1969 25.6131 17.1663C24.3721 17.1663 23.1281 17.2027 21.8904 17.2596L17.2221 9.17168C17.5062 8.8246 17.6558 8.45001 17.7027 8.07876C20.0827 7.77814 22.7064 7.60126 25.5056 7.60126ZM13.6446 8.76126C13.9758 9.45356 14.6596 9.9796 15.6154 9.95668C15.7104 9.96252 15.8054 9.96252 15.9006 9.95668L20.2014 17.3546C18.211 17.4877 16.2556 17.6873 14.3962 17.9615C8.68331 16.8604 5.1531 14.9838 5.1531 13.2761C5.1531 13.0756 5.20789 12.8736 5.3031 12.6711C5.40664 12.5056 5.51435 12.3434 5.62185 12.1809C6.69643 10.8904 9.58373 9.63231 13.6446 8.76126ZM46.0312 14.9663C47.089 17.1704 47.7915 19.5279 48.1129 21.9515C46.2942 20.5596 43.2929 19.4502 39.6927 18.6515C42.7344 17.7186 45.0371 16.4752 46.0312 14.9663ZM4.01143 15.0319C5.02893 16.5496 7.34102 17.7825 10.355 18.7011C6.75206 19.5044 3.77331 20.6077 1.95976 21.9723C2.09685 20.9379 2.30101 19.9036 2.58268 18.8754C2.94935 17.5363 3.43143 16.2536 4.01143 15.0319ZM25.5771 18.8077C26.1869 18.8142 26.7854 18.8292 27.3777 18.8482C26.4521 18.8875 25.5119 18.9152 24.5423 18.9152C23.9684 18.9083 23.3946 18.8938 22.821 18.8719L22.8119 18.8552C23.7332 18.8241 24.6552 18.8082 25.5771 18.8077ZM35.8229 19.5996C43.4254 20.7509 48.2271 22.9646 48.3175 24.9761C48.3175 25.0077 48.316 25.0396 48.316 25.0715C48.2069 27.0763 43.3571 29.2365 35.9348 30.3892C33.7537 29.9711 31.3954 29.6771 28.9921 29.5165L25.7917 24.0182L23.8244 20.6104C24.0514 20.6152 24.2789 20.6254 24.5056 20.6279C28.4125 20.6279 32.3629 20.2698 35.8229 19.5996ZM14.2104 19.6329C16.6683 20.105 19.3496 20.4142 22.0587 20.5484L24.4702 24.6963L27.1998 29.4205C26.6354 29.3969 26.0708 29.3806 25.506 29.3715C21.5581 29.3715 17.5658 29.7321 14.0785 30.4103C6.86727 29.2957 2.20414 27.2213 1.7606 25.2869C1.75822 25.1038 1.75801 24.9207 1.75997 24.7375C2.20685 22.7898 7.01414 20.739 14.2104 19.6329ZM48.1048 28.1273C47.7845 30.5064 47.0983 32.8217 46.0704 34.9911C45.0985 33.4907 42.8721 32.2786 39.9529 31.3694C43.4508 30.563 46.3362 29.4694 48.1048 28.1273ZM1.97289 28.1678C3.74789 29.528 6.6256 30.6117 10.0771 31.4042C7.1831 32.3119 4.9856 33.5063 3.99164 34.9507C2.9772 32.8057 2.29643 30.5183 1.97289 28.1678ZM25.5054 31.0132C26.4227 31.0275 27.3083 31.0661 28.1785 31.1142L28.196 31.1442C26.9548 31.2001 25.7125 31.2279 24.47 31.2278C23.473 31.2167 22.4763 31.1874 21.4804 31.14C22.8204 31.056 24.1627 31.0138 25.5054 31.0132ZM36.1156 32.1019C41.5577 33.2255 44.9067 35.0392 44.9298 36.7234C44.9298 36.9642 44.8554 37.2088 44.7144 37.4532C44.6902 37.4913 44.6642 37.5286 44.6398 37.5667C43.7944 38.8403 41.1042 40.1094 37.2133 41.0242C36.8533 40.5174 36.2727 40.1574 35.5033 40.1501C35.3962 40.1421 35.2887 40.1421 35.1817 40.1501L30.8525 32.7126C32.6598 32.5667 34.4296 32.3655 36.1156 32.1019ZM13.8933 32.1269C17.2325 32.6438 20.8656 32.9328 24.4344 32.9761C26.0135 32.9761 27.6006 32.9286 29.1689 32.8359L33.8252 40.9349C33.6312 41.1706 33.4889 41.4444 33.4075 41.7386C30.7525 42.1271 27.7646 42.3626 24.5417 42.3626C14.7469 42.2401 7.50248 40.0717 5.60977 37.8365C5.47779 37.6348 5.34895 37.431 5.22331 37.2253C5.15602 37.0571 5.11977 36.8894 5.11747 36.7232C5.13956 35.0565 8.52893 33.2517 13.8933 32.1269ZM41.5273 41.4353C41.3981 41.5651 41.271 41.6965 41.1381 41.8236C38.3717 44.4739 34.9927 46.3987 31.3021 47.4265C31.4075 47.1774 31.4681 46.9169 31.4681 46.6453C31.4681 45.4861 30.4564 44.4978 28.8612 43.8917C30.4612 43.7852 32.0562 43.6146 33.6425 43.3803C34.1629 44.2436 35.2573 44.7603 36.391 44.2299C37.1217 43.8882 37.5031 43.2788 37.5981 42.6344C39.0365 42.2928 40.3606 41.8913 41.5273 41.4353ZM8.64331 41.5357C11.9596 42.8078 16.4879 43.6103 21.1462 43.9086C19.5946 44.5067 18.6139 45.469 18.6139 46.6097V46.6451C18.6139 46.9155 18.6764 47.1759 18.7848 47.4259C14.9568 46.3606 11.4655 44.3327 8.64331 41.5357ZM25.041 44.8607C27.9333 44.8607 29.7546 45.8957 29.7902 46.6451C29.8158 47.1803 28.8369 47.8407 27.2371 48.1759C25.7136 48.3205 24.1796 48.3149 22.6573 48.1592C21.1694 47.7951 20.2927 47.1359 20.2927 46.6453C20.2927 45.9315 22.1489 44.8607 25.041 44.8607Z" fill="url(#paint0_linear_26_14)"/>
<defs>
<linearGradient id="paint0_linear_26_14" x1="25" y1="0" x2="25" y2="50" gradientUnits="userSpaceOnUse">
<stop stop-color="#F6D8AE" stop-opacity="0"/>
<stop offset="0.0001" stop-color="#F6D8AE" stop-opacity="0.96"/>
<stop offset="1" stop-color="#96705B"/>
</linearGradient>
</defs>
</svg>
